REM MD5 caa2a4791403e387e55ead300d153502
FILE "Dengeki PlayStation D15 (Japan).bin" BINARY
  TRACK 01 MODE2/2352
    INDEX 01 00:00:00
  TRACK 02 AUDIO
    INDEX 00 65:15:65
    INDEX 01 65:17:65
  TRACK 03 AUDIO
    INDEX 00 66:16:66
    INDEX 01 66:18:66
REM LEADOUT 69:20:66
